<svg width="24" height="24" viewBox="0 0 24 24" fill="none" xmlns="http://www.w3.org/2000/svg">
<path d="M12 22C17.5228 22 22 17.5228 22 12C22 6.47715 17.5228 2 12 2C6.47715 2 2 6.47715 2 12C2 17.5228 6.47715 22 12 22Z" stroke="#292D32" stroke-width="1.5" stroke-linecap="round" stroke-linejoin="round"/>
<path d="M9.2666 12.3975H8.09961V15H6.63477V7.89062H9.27637C10.1162 7.89062 10.764 8.0778 11.2197 8.45215C11.6755 8.8265 11.9033 9.35547 11.9033 10.0391C11.9033 10.5241 11.7975 10.9294 11.5859 11.2549C11.3776 11.5771 11.0602 11.8343 10.6338 12.0264L12.1719 14.9316V15H10.5996L9.2666 12.3975ZM8.09961 11.2109H9.28125C9.64909 11.2109 9.93392 11.1182 10.1357 10.9326C10.3376 10.7438 10.4385 10.485 10.4385 10.1562C10.4385 9.82096 10.3424 9.55729 10.1504 9.36523C9.96159 9.17318 9.67025 9.07715 9.27637 9.07715H8.09961V11.2109ZM17.6846 12.4072C17.6846 13.221 17.499 13.8737 17.1279 14.3652C16.7601 14.8535 16.262 15.0977 15.6338 15.0977C15.0999 15.0977 14.6686 14.9121 14.3398 14.541V17.0312H12.9287V9.7168H14.2373L14.2861 10.2344C14.6279 9.82422 15.0739 9.61914 15.624 9.61914C16.2751 9.61914 16.7812 9.86003 17.1426 10.3418C17.5039 10.8236 17.6846 11.4876 17.6846 12.334V12.4072ZM16.2734 12.3047C16.2734 11.8132 16.1855 11.4339 16.0098 11.167C15.8372 10.9001 15.585 10.7666 15.2529 10.7666C14.8102 10.7666 14.5059 10.9359 14.3398 11.2744V13.4375C14.5124 13.7858 14.82 13.96 15.2627 13.96C15.9365 13.96 16.2734 13.4082 16.2734 12.3047Z" fill="#292D32"/>
</svg>
