<svg width="276" height="196" viewBox="0 0 276 196" fill="none" xmlns="http://www.w3.org/2000/svg">
<path d="M275.354 37.4472V158.955C275.354 178.438 259.097 191.58 239.455 194.234C229.711 195.549 219.841 196.073 208.008 195.992C203.45 195.96 198.601 195.839 193.355 195.638C189.072 195.475 184.527 195.257 179.656 194.995C169.547 194.448 158.056 193.699 144.665 192.8C135.754 192.201 123.88 192.126 110.99 192.303C108.613 192.338 106.2 192.377 103.766 192.427C95.1719 192.598 86.298 192.852 77.684 193.119C61.7379 193.616 46.6758 194.143 35.8983 194.238C16.0729 194.412 0 178.447 0 158.958V37.4472C0 17.9625 16.1065 1.01674 35.8983 2.16809C54.2777 3.23241 81.3121 7.44616 109.494 4.86494C143.01 1.79757 206.629 -0.809762 239.456 2.16809C259.197 3.95977 275.354 17.9625 275.354 37.4472Z" fill="#DAEBE8"/>
<g opacity="0.4">
<path opacity="0.4" d="M179.236 29.0234C179.236 29.0234 182.428 22.8837 190.502 23.6521C198.577 24.4205 197.615 30.5764 201.46 29.9933C205.304 29.4101 210.688 29.9933 211.842 33.839C212.996 37.6847 218.183 35.571 218.378 38.8398C218.574 42.1086 212.419 44.4175 205.306 41.5329C198.192 38.6483 194.737 43.7709 184.734 42.8459C174.731 41.9208 173.499 40.7633 167.576 41.3402C161.653 41.9171 161.799 37.8588 164.491 35.1719C167.183 32.485 178.085 32.7411 179.236 29.0234Z" fill="white"/>
</g>
<g opacity="0.6">
<path opacity="0.6" d="M85.7389 23.3053C85.7389 23.3053 87.5604 19.8003 92.1696 20.2392C96.7787 20.6781 96.2304 24.1918 98.4262 23.8624C100.622 23.5329 103.693 23.8624 104.352 26.0581C105.011 28.2539 107.974 27.0466 108.082 28.9179C108.19 30.7891 104.68 32.1021 100.622 30.4547C96.5636 28.8072 94.5854 31.7341 88.8784 31.2007C83.1714 30.6673 82.4651 30.012 79.0869 30.3415C75.7087 30.671 75.7895 28.3521 77.3251 26.8203C78.8606 25.2885 85.0824 25.4277 85.7389 23.3053Z" fill="white"/>
</g>
<g opacity="0.6">
<path opacity="0.6" d="M156.37 15.5355C156.37 15.5355 157.922 12.5515 161.847 12.9245C165.772 13.2975 165.305 16.2915 167.175 16.0105C169.045 15.7295 171.661 16.0105 172.222 17.8755C172.782 19.7406 175.305 18.7173 175.4 20.3063C175.494 21.8953 172.501 23.0181 169.044 21.6156C165.586 20.2131 163.904 22.7048 159.043 22.2534C154.183 21.8021 153.581 21.2413 150.704 21.5223C147.827 21.8033 147.895 19.8326 149.205 18.5233C150.514 17.2141 155.809 17.3434 156.37 15.5355Z" fill="white"/>
</g>
<path d="M78.1859 49.7651C76.1157 51.7383 74.8724 51.6675 74.1003 50.8555C73.3281 50.0436 73.3157 48.799 75.3834 46.8283C79.1558 43.235 82.3786 42.9677 82.3786 42.9677C82.3786 42.9677 82.0143 46.1196 78.1859 49.7651Z" fill="#ACC9C5"/>
<path d="M82.2967 67.8413C80.975 70.3778 79.7764 70.7135 78.7818 70.195C77.7871 69.6765 77.3755 68.5028 78.696 65.9676C81.1031 61.3472 84.066 60.0516 84.066 60.0516C84.066 60.0516 84.7387 63.1501 82.2967 67.8413Z" fill="#ACC9C5"/>
<path d="M92.1967 115.058L91.6595 115.135C91.6484 115.053 90.4 106.745 84.8608 95.4463C79.7494 85.0207 69.8361 69.843 51.6357 56.7404L51.9516 56.3015C70.2576 69.4811 80.2243 84.7422 85.3619 95.2299C90.926 106.6 92.1842 114.974 92.1967 115.058Z" fill="#ACC9C5"/>
<path d="M70.945 73.7783L70.4352 73.598C76.979 55.0608 66.1705 36.95 66.0586 36.7697L66.5211 36.4874C66.6343 36.6702 77.5758 54.9949 70.945 73.7783Z" fill="#ACC9C5"/>
<path d="M61.004 67.0878C55.6513 68.3436 50.9776 66.6116 50.9229 66.5904L51.1156 66.0856C51.1753 66.108 57.1633 68.3237 63.2483 65.8009L63.4559 66.2982C62.6613 66.6273 61.8413 66.8913 61.004 67.0878V67.0878Z" fill="#ACC9C5"/>
<path d="M50.5902 53.8845C53.9684 55.7495 54.5341 57.0961 53.9933 58.0783C53.4524 59.0606 52.0039 59.3018 48.6307 57.4405C42.4773 54.0498 40.4829 50.6331 40.4829 50.6331C40.4829 50.6331 44.346 50.4441 50.5902 53.8845Z" fill="#ACC9C5"/>
<path d="M51.9381 64.5563C55.7204 65.3122 56.6629 66.4288 56.4478 67.5279C56.2327 68.627 54.9247 69.2922 51.1424 68.5363C44.2529 67.1586 41.3198 64.5028 41.3198 64.5028C41.3198 64.5028 44.9479 63.1575 51.9381 64.5563Z" fill="#ACC9C5"/>
<path d="M64.4261 57.4292C65.6968 59.9917 65.2616 61.1593 64.257 61.6566C63.2524 62.1539 62.06 61.7959 60.7893 59.2345C58.4754 54.567 59.1729 51.4088 59.1729 51.4088C59.1729 51.4088 62.0799 52.6932 64.4261 57.4292Z" fill="#ACC9C5"/>
<path d="M67.1343 34.0927C68.865 37.5393 68.5678 38.9716 67.5669 39.4752C66.566 39.9788 65.2381 39.3608 63.5061 35.9142C60.353 29.6365 60.6464 25.6901 60.6464 25.6901C60.6464 25.6901 63.9338 27.723 67.1343 34.0927Z" fill="#ACC9C5"/>
<path d="M121.348 168.34C121.348 168.34 71.0606 66.2859 43.8807 80.9712C16.7008 95.6565 92.7299 141.896 106.428 172.062L121.348 168.34Z" fill="#ACC9C5"/>
<path d="M102.053 156.704C102.053 156.704 49.4888 90.136 28.0645 105.888C6.64009 121.64 75.3022 142.244 89.8595 162.135L102.053 156.704Z" fill="#92BCB5"/>
<path d="M95.257 159.805C85.4543 145.88 70.1013 134.249 58.9508 126.939C46.8554 119.014 36.9632 114.328 36.8638 114.281L37.1547 113.659C37.2529 113.706 47.1886 118.412 59.3201 126.364C70.5228 133.707 85.9492 145.4 95.8128 159.407L95.257 159.805Z" fill="#68A1BF"/>
<path d="M110.988 192.302C99.8701 192.46 89.0218 192.766 77.6823 193.115C77.4513 192.691 77.2466 192.253 77.0694 191.803C70.6673 185.2 71.7813 186.184 57.387 188.741C42.9926 191.297 46.3111 172.616 34.0627 169.096C21.6863 165.548 8.62606 155.491 16.9305 145.625C25.2709 135.735 33.7245 139.253 43.48 140.776C50.1332 141.813 60.2653 131.148 69.3555 129.939C75.0253 129.193 78.3214 132.244 81.1923 137.102C87.0734 147.153 91.2412 149.318 96.4708 149.97C98.2202 150.188 99.9783 150.23 102.471 150.372C106.44 150.607 114.486 151.518 117.445 154.167C130.431 165.778 124.737 182.075 110.988 192.302Z" fill="#CCD39C"/>
<path d="M108.777 177.61L109.289 176.947C108.998 176.721 79.3177 154.252 14.9738 148.466L14.8979 149.3C79.0007 155.067 108.486 177.381 108.777 177.61Z" fill="#C2C68E"/>
<path d="M70.3329 150.06C79.3411 142.973 81.2409 137.004 81.3168 136.756L80.5161 136.507C80.4974 136.567 78.5926 142.499 69.8145 149.404L70.3329 150.06Z" fill="#C2C68E"/>
<path d="M68.2613 158.98C70.9295 154.929 71.1061 148.849 68.7723 141.396C67.6618 137.903 66.2113 134.528 64.4417 131.319L63.7168 131.739C63.8163 131.913 73.701 149.211 67.5712 158.523L68.2613 158.98Z" fill="#C2C68E"/>
<path d="M51.3984 156.403C52.4665 155.624 53.0496 155.11 53.0757 155.087L52.5162 154.465C52.3918 154.574 40.0975 165.384 23.1182 163.742L23.0386 164.575C36.7155 165.896 47.4196 159.308 51.3984 156.403Z" fill="#C2C68E"/>
<path d="M41.756 175.187C45.9263 171.112 47.3226 166.856 47.759 164.005C48.2327 160.897 47.7179 158.783 47.6968 158.693L46.8824 158.895C46.9035 158.976 48.8059 167.127 41.1704 174.588L41.756 175.187Z" fill="#C2C68E"/>
<path d="M21.3667 130.423C18.7022 129.304 18.2645 128.129 18.7022 127.085C19.1398 126.04 20.2874 125.526 22.9507 126.642C27.7998 128.675 29.3578 131.548 29.3578 131.548C29.3578 131.548 26.2904 132.486 21.3667 130.423Z" fill="#ACC9C5"/>
<g opacity="0.6">
<path opacity="0.6" d="M154.875 168.016C154.875 168.016 191.076 40.1913 225.393 51.3169C259.71 62.4425 182.155 131.597 172.799 169.142L154.875 168.016Z" fill="#ACC9C5"/>
</g>
<path d="M180.496 161.313C180.496 161.313 224.793 84.6751 249.285 97.7329C273.777 110.791 205.954 142.37 193.906 165.097L180.496 161.313Z" fill="#CCD39C"/>
<path d="M187.979 163.496C196.014 147.649 210.125 133.328 220.546 124.103C231.846 114.104 241.359 107.781 241.454 107.717L241.062 107.131C240.967 107.195 231.412 113.546 220.076 123.579C209.607 132.843 195.432 147.234 187.346 163.181L187.979 163.496Z" fill="#C2C68E"/>
<path d="M246.157 174.691C243.323 175.503 241.34 177.276 239.719 179.723C235.915 185.433 234.853 193.316 225.897 191.725C215.329 189.841 214.393 188.938 210.992 192.17C209.831 193.284 208.834 194.557 208.032 195.951C207.994 196.013 201.825 195.961 193.36 195.636C185.754 195.347 179.832 194.993 179.659 194.993C168.164 186.597 162.022 172.189 173.791 161.679C175.259 160.365 177.611 159.791 179.573 159.351C191.5 156.676 196.024 161.562 204.171 148.701C205.672 146.338 206.668 144.053 209.054 142.271C218.098 135.527 230.564 151.259 238.005 150.104C246.475 148.789 253.815 145.74 261.047 154.332C268.245 162.894 256.873 171.632 246.157 174.691Z" fill="#ACC9C5"/>
<g opacity="0.5">
<path opacity="0.5" d="M181.297 182.032L180.852 181.456C181.101 181.259 206.883 161.775 262.741 156.794L262.806 157.519C207.158 162.481 181.55 181.836 181.297 182.032Z" fill="#68A1BF"/>
<path opacity="0.5" d="M214.685 158.142C206.869 151.986 205.225 146.798 205.158 146.578L205.854 146.366C205.871 146.418 207.519 151.568 215.135 157.567L214.685 158.142Z" fill="#68A1BF"/>
<path opacity="0.5" d="M216.477 165.889C214.164 162.372 214.015 157.093 216.045 150.626C217.013 147.593 218.276 144.663 219.816 141.877L220.445 142.243C220.358 142.393 211.767 157.402 217.088 165.494L216.477 165.889Z" fill="#68A1BF"/>
<path opacity="0.5" d="M231.117 163.66C230.191 162.983 229.685 162.541 229.663 162.516L230.147 161.975C230.253 162.069 240.921 171.461 255.661 170.047L255.731 170.771C243.859 171.911 234.569 166.184 231.117 163.66Z" fill="#68A1BF"/>
<path opacity="0.5" d="M239.475 179.97C235.857 176.431 234.649 172.736 234.272 170.261C233.863 167.565 234.31 165.726 234.329 165.649L235.035 165.826C235.018 165.896 233.36 172.971 239.984 179.45L239.475 179.97Z" fill="#68A1BF"/>
</g>
<path d="M178.143 70.6324C178.463 67.2853 179.622 66.3913 180.933 66.5169C182.245 66.6425 183.214 67.7404 182.894 71.0875C182.31 77.18 179.653 79.9042 179.653 79.9042C179.653 79.9042 177.551 76.8194 178.143 70.6324Z" fill="#ACC9C5"/>
<path d="M245.238 138.799C248.762 138.194 250.002 139.134 250.239 140.514C250.477 141.895 249.618 143.195 246.096 143.799C239.678 144.901 236.149 142.929 236.149 142.929C236.149 142.929 238.727 139.916 245.238 138.799Z" fill="#ACC9C5"/>
<path d="M234.703 133.285C236.602 130.51 238.048 130.288 239.136 131.032C240.224 131.777 240.541 133.205 238.639 135.98C235.181 141.035 231.539 142.132 231.539 142.132C231.539 142.132 231.195 138.416 234.703 133.285Z" fill="#ACC9C5"/>
<path d="M112.552 54.7088C112.552 54.7088 114.769 73.7049 105.126 74.2208C80.498 75.5401 66.949 93.0988 81.3173 95.8168C87.7107 97.0278 78.669 104.272 65.2096 111.954C49.3244 121.031 49.9635 149.741 77.2416 153.045C104.52 156.349 122.624 135.543 136.883 145.197C151.142 154.85 174.993 133.942 187.178 134.676C199.363 135.409 209.248 137.152 212.792 126.855C216.335 116.557 183.517 114.079 185.199 97.3872C186.881 80.695 155.695 79.0128 162.554 76.0088C187.181 65.2202 155.811 57.1097 147.376 44.5145C141.696 36.036 112.552 54.7088 112.552 54.7088Z" fill="#331832"/>
<path d="M193.355 195.638C148.624 193.932 149.689 191.52 103.765 192.424C103.123 168.616 104.386 134.281 113.045 111.967C110.807 110.511 100.006 103.473 98.1011 102.233C98.1011 102.22 98.3958 101.779 98.4169 101.758C99.4253 100.344 102.978 96.0133 110.92 92.2123C111.436 92.2123 121.071 86.192 142.377 85.7705C146.038 85.7033 149.668 86.1298 153.269 86.7925C153.364 86.8398 158.632 87.6964 161.279 88.5332C170.588 91.4327 176.889 94.4491 181.1 97.0266C187.547 100.972 188.985 103.727 189.038 103.781C189.038 103.941 184.574 112.919 178.256 115.809C178.447 116.385 181.059 124.885 181.059 124.943C188.018 148.207 193.083 171.452 193.355 195.638Z" fill="#73B3CE"/>
<path d="M123.246 111.528C123.966 109.587 118.921 105.927 111.979 103.352C105.037 100.777 98.8252 100.262 98.1055 102.203C97.3857 104.143 102.43 107.804 109.373 110.379C116.315 112.954 122.526 113.468 123.246 111.528Z" fill="#331832"/>
<path d="M148.951 52.7394C148.951 52.7394 148.748 55.4039 151.051 60.437C154.42 67.8027 146.12 72.3982 143.522 70.553C143.202 70.3255 141.516 57.1633 141.516 57.1633L144.068 55.0495L148.951 52.7394Z" fill="#331832"/>
<path d="M138.251 54.7261C138.251 54.7261 146.486 61.0673 145.229 69.0696C145.229 69.0696 148.626 63.9482 148.454 62.2609C148.282 60.5737 146.247 54.7087 146.247 54.7087L138.251 54.7261Z" fill="#331832"/>
<path d="M141.884 63.3192C141.811 63.3216 141.739 63.2957 141.684 63.2468C141.63 63.1978 141.596 63.1296 141.59 63.0564C141.584 62.9831 141.606 62.9103 141.653 62.8532C141.699 62.7961 141.766 62.759 141.838 62.7497C141.857 62.7497 143.621 62.4488 144.264 61.3037C144.283 61.2707 144.307 61.2416 144.337 61.2182C144.366 61.1947 144.4 61.1774 144.436 61.1671C144.473 61.1568 144.511 61.1538 144.548 61.1582C144.586 61.1627 144.622 61.1745 144.655 61.193C144.721 61.2308 144.769 61.2931 144.79 61.3664C144.81 61.4397 144.801 61.5181 144.764 61.5847C143.984 62.9735 142.014 63.3017 141.929 63.3167L141.884 63.3192Z" fill="#EC865C"/>
<path d="M153.311 86.8038C151.124 86.2455 148.902 85.4597 147.242 82.825L141.885 72.8147L140.536 72.1756L131.663 58.0908L135.246 73.5682L137.397 82.8573C137.397 82.8573 138.058 85.2508 134.258 86.1672C134.258 86.1672 131.523 94.1582 136.567 94.7277C144.782 95.6565 153.327 86.8075 153.311 86.8038Z" fill="#FFB27D"/>
<path d="M142.019 74.3066C142.031 74.3937 142.038 74.4807 142.043 74.5677C142.462 79.673 137.434 82.8771 137.434 82.8771L137.397 82.8535L135.246 73.5644C136.801 72.7015 139.054 71.7105 140.535 72.1718C141.309 72.4167 141.873 73.0546 142.019 74.3066Z" fill="#E9845C"/>
<path d="M134.195 78.8512C129.843 79.5338 125.568 77.8167 122.295 74.533C121.206 73.4361 120.254 72.2107 119.461 70.8837C118.023 68.4658 117.065 65.793 116.64 63.012C115.07 52.9905 120.38 43.8344 128.503 42.56C136.626 41.2855 144.484 48.3776 146.057 58.3991C147.629 68.4206 142.313 77.5767 134.195 78.8512Z" fill="#FFB27D"/>
<path d="M145.88 60.2652C147.144 58.3005 146.901 55.8928 145.338 54.8876C143.776 53.8823 141.484 54.6602 140.22 56.625C138.957 58.5897 139.199 60.9974 140.762 62.0026C142.325 63.0079 144.616 62.23 145.88 60.2652Z" fill="#FFB27D"/>
<path d="M125.473 72.7499C125.473 72.7499 130.368 72.9514 135.263 69.5247C135.263 69.5247 135.336 73.9722 131.115 74.9383C127.529 75.7601 125.473 72.7499 125.473 72.7499Z" fill="white"/>
<path d="M129.949 61.1036C129.88 61.0946 129.815 61.0646 129.764 61.0176C129.712 60.9706 129.677 60.9088 129.662 60.8408C129.647 60.7728 129.653 60.7018 129.68 60.6376C129.707 60.5733 129.753 60.519 129.812 60.4819C129.906 60.4259 131.977 58.914 134.288 60.7678C134.359 60.8229 134.405 60.9036 134.417 60.9926C134.428 61.0815 134.404 61.1714 134.35 61.2428C134.237 61.3908 134.046 61.3846 133.875 61.305C132.177 60.513 130.231 61.0178 130.153 61.0638C130.091 61.0983 130.019 61.1123 129.949 61.1036V61.1036Z" fill="#080435"/>
<path d="M118.28 64.7203C118.212 64.7402 118.139 64.7381 118.072 64.7145C118.006 64.6908 117.948 64.6467 117.907 64.5884C117.867 64.5301 117.846 64.4606 117.847 64.3896C117.848 64.3187 117.872 64.25 117.915 64.1932C117.98 64.1049 119.32 61.919 122.168 62.7496C122.254 62.7735 122.328 62.8305 122.373 62.9082C122.417 62.986 122.43 63.0782 122.407 63.1649C122.358 63.3464 122.178 63.4136 121.991 63.4036C120.119 63.3191 118.51 64.5226 118.457 64.5985C118.413 64.6572 118.351 64.7 118.28 64.7203Z" fill="#080435"/>
<path d="M131.481 65.5037C130.655 65.5037 130.168 65.2227 130.129 65.1978C130.029 65.1323 129.959 65.0309 129.932 64.9147C129.905 64.7986 129.924 64.6765 129.985 64.574C130.046 64.4714 130.144 64.3962 130.258 64.364C130.373 64.3317 130.496 64.3449 130.601 64.4008C130.671 64.4406 132.107 65.1991 134.456 63.2694C134.502 63.229 134.557 63.1984 134.615 63.1793C134.674 63.1602 134.736 63.1531 134.798 63.1583C134.859 63.1634 134.919 63.1809 134.974 63.2095C135.028 63.2381 135.077 63.2774 135.116 63.325C135.156 63.3726 135.185 63.4276 135.203 63.4868C135.221 63.5459 135.226 63.608 135.22 63.6694C135.213 63.7308 135.195 63.7903 135.165 63.8444C135.135 63.8985 135.095 63.946 135.046 63.9843C133.573 65.1991 132.341 65.5037 131.481 65.5037Z" fill="#080435"/>
<path d="M121.475 68.3199C120.648 68.3199 120.161 68.0389 120.121 68.014C120.016 67.9503 119.94 67.8476 119.911 67.7283C119.881 67.609 119.9 67.4828 119.963 67.3774C119.994 67.3252 120.035 67.2795 120.083 67.2432C120.132 67.2068 120.187 67.1804 120.246 67.1655C120.305 67.1506 120.366 67.1474 120.426 67.1563C120.486 67.1651 120.544 67.1858 120.596 67.217C120.668 67.258 122.105 68.0128 124.443 66.0855C124.49 66.0452 124.544 66.0146 124.603 65.9955C124.661 65.9764 124.723 65.9692 124.785 65.9744C124.846 65.9796 124.906 65.997 124.961 66.0257C125.016 66.0543 125.064 66.0936 125.104 66.1412C125.143 66.1888 125.172 66.2438 125.19 66.3029C125.208 66.3621 125.214 66.4242 125.207 66.4856C125.201 66.547 125.182 66.6065 125.152 66.6605C125.122 66.7146 125.082 66.7622 125.033 66.8005C123.56 68.0152 122.334 68.3199 121.475 68.3199Z" fill="#080435"/>
<path d="M189.038 103.774C189.038 103.774 184.217 112.76 178.253 115.803L182.231 130.382L169.507 127.07L170.303 110.767L185.146 102.282L189.038 103.774Z" fill="#92A5E6"/>
<path d="M99.7808 103.327C99.7808 103.327 66.4463 141.355 70.9883 150.649C75.5303 159.943 92.5532 166.191 108.367 143.121C117.808 129.348 116.232 101.793 99.7808 103.327Z" fill="#FFB27D"/>
<path d="M119.007 51.3802C119.007 51.3802 122.549 56.6819 133.256 54.7087C141.075 53.2677 146.103 56.2132 146.684 62.5618C147.265 68.9104 174.355 64.7327 174.355 64.7327C174.355 64.7327 180.429 60.744 163.272 54.051C155.943 51.1912 147.96 25.057 120.127 34.9629C104.369 40.5717 100.195 54.3208 107.072 61.8456C115.402 70.952 100.931 74.6099 100.931 74.6099L117.84 75.9093C117.84 75.9093 114.256 68.5486 116.628 63.0106C119 57.4727 115.886 56.3363 119.007 51.3802Z" fill="#331832"/>
<path d="M196.125 114.636C196.125 114.636 209.585 133.076 209.077 140.336C208.57 147.596 187.181 129.835 187.181 129.835L196.125 114.636Z" fill="#FFB27D"/>
<path d="M137.027 104.354C137.027 104.354 116.108 83.6319 93.849 96.1898C70.5634 109.326 89.0559 146.132 114.323 161.205C139.591 176.278 146.13 182.417 151.5 180.9C156.87 179.383 228.77 114.505 201.197 78.835C181.415 53.2354 147.056 60.0926 137.027 104.354Z" fill="#E6523B"/>
<path d="M193.364 85.7181C193.364 85.7181 190.658 74.9531 178.549 72.6442C166.44 70.3353 160.737 76.0125 163.329 79.5287C165.922 83.0449 174.342 79.7264 178.04 84.7508C181.737 89.7752 194.362 95.3965 193.364 85.7181Z" fill="#FFC9BC"/>
<g opacity="0.3">
<path opacity="0.3" d="M105.588 122.549C103.695 119.858 96.8028 105.632 92.1961 107.828C85.9793 110.791 89.8052 130.289 98.1009 140.678C106.397 151.068 136.248 177.029 148.887 175.054C155.274 174.059 169.599 161.859 168.883 154.114C166.726 130.793 139.965 153.037 133.872 143.619C127.78 134.201 111.092 130.371 105.588 122.549Z" fill="#D05F47"/>
</g>
<path d="M127.553 148.038C127.553 148.038 101.193 139.985 89.0868 137.479C78.2373 135.234 70.24 139.096 70.9885 150.644C71.543 159.191 84.0437 162.805 102.534 163.98C121.024 165.155 140.189 163.039 140.189 163.039C141.149 159.992 127.553 148.038 127.553 148.038Z" fill="#FFB27D"/>
<path d="M138.92 163.019C132.144 163.144 124.071 161.317 124.071 161.317C124.071 161.317 121.231 149.96 122.15 148.852C125.694 144.575 132.45 141.228 134.793 138.877C135.809 137.857 139.46 134.666 140.606 135.545C141.6 136.309 139.902 140.231 138.865 141.999C148.199 140.327 162.572 142.085 143.266 147.016C143.266 147.026 143.266 147.037 143.275 147.048C145.273 146.73 158.912 145.023 158.291 147.866C157.743 150.376 147.315 151.914 144.033 152.467C144.033 152.498 144.033 152.529 144.033 152.56C147.419 152.284 157.608 151.109 156.318 153.324C154.702 156.102 144.072 158.781 144.072 158.781C144.072 158.781 155.147 156.524 153.671 159.962C152.665 162.307 143.394 162.735 140.179 163.038C139.76 163.081 139.337 163.075 138.92 163.019V163.019Z" fill="#FFB27D"/>
<path d="M143.613 132.403C149.761 135.254 157.884 136.848 157.884 136.848C157.884 136.848 165.071 127.61 164.68 126.224C163.168 120.878 158.339 115.088 157.149 111.989C156.633 110.646 154.582 106.25 153.18 106.592C151.96 106.889 151.929 111.162 152.159 113.198C144.297 107.894 130.441 103.691 146.105 116.006L146.084 116.033C144.386 114.933 132.601 107.858 132.019 110.71C131.506 113.226 140.422 118.849 143.198 120.685L143.155 120.769C140.171 119.152 131.327 113.954 131.611 116.501C131.968 119.698 140.605 126.448 140.605 126.448C140.605 126.448 131.389 119.907 131.348 123.648C131.32 126.2 139.627 130.339 142.445 131.917C142.814 132.124 143.206 132.287 143.613 132.403V132.403Z" fill="#FFB27D"/>
<path d="M90.1234 137.898C90.1085 137.9 90.0936 137.9 90.0787 137.898C86.5438 137.08 81.9098 137.676 81.8638 137.681C81.8385 137.685 81.8128 137.683 81.7881 137.677C81.7634 137.67 81.7402 137.659 81.7199 137.643C81.6996 137.628 81.6827 137.608 81.67 137.586C81.6573 137.564 81.6493 137.54 81.6462 137.514C81.6395 137.463 81.6532 137.412 81.6844 137.371C81.7156 137.33 81.7618 137.303 81.8128 137.295C81.8601 137.288 86.56 136.687 90.167 137.519C90.2126 137.531 90.2524 137.559 90.2791 137.598C90.3058 137.636 90.3176 137.683 90.3123 137.73C90.307 137.777 90.285 137.82 90.2503 137.852C90.2156 137.884 90.1705 137.902 90.1234 137.903V137.898Z" fill="#E9845C"/>
<path d="M160.067 123.295C160.067 123.295 185.511 124.246 196.007 127.795C206.295 131.276 212.792 141.168 206.755 146.811C200.496 152.655 191.089 150.833 173.701 144.431C156.312 138.029 148.021 134.152 148.021 134.152C148.377 130.979 160.067 123.295 160.067 123.295Z" fill="#FFB27D"/>
<path d="M202.562 131.406C202.516 131.406 202.472 131.39 202.438 131.36C200.697 129.92 197.81 128.704 197.78 128.693C197.732 128.673 197.694 128.634 197.675 128.586C197.655 128.538 197.655 128.484 197.675 128.437C197.696 128.389 197.734 128.351 197.782 128.331C197.83 128.312 197.884 128.312 197.932 128.332C198.056 128.383 200.895 129.583 202.685 131.067C202.716 131.093 202.739 131.127 202.749 131.166C202.76 131.205 202.759 131.246 202.745 131.284C202.731 131.322 202.706 131.354 202.673 131.377C202.64 131.4 202.601 131.412 202.561 131.412L202.562 131.406Z" fill="#E9845C"/>
<g opacity="0.7">
<path opacity="0.7" d="M135.654 66.6077C135.489 64.5089 137.334 63.8189 138.609 63.6535C140.598 63.3949 141.67 64.9168 141.67 66.2024C141.67 68.1222 140.38 69.4886 138.757 69.23C137.487 69.0286 135.801 68.4877 135.654 66.6077Z" fill="#EF8062"/>
</g>
<g opacity="0.5">
<path opacity="0.5" d="M122.437 74.4895C122.389 74.5044 122.342 74.5206 122.291 74.533C121.201 73.4362 120.25 72.2107 119.457 70.8838C119.571 70.7081 119.708 70.5484 119.864 70.4088C120.774 69.5969 122.002 70.3914 122.578 71.3426C123.44 72.7625 123.389 74.175 122.437 74.4895Z" fill="#EF8062"/>
</g>
</svg>
