<svg width="32" height="32" viewBox="0 0 32 32" fill="none" xmlns="http://www.w3.org/2000/svg">
<path d="M27.58 19.4246C26.1362 21.6019 24.8267 24.0605 25.1467 26.6533V26.6533C25.28 27.76 24.0933 28.5333 23.1467 27.96L17.7628 24.7605C17.6301 24.6816 17.4746 24.6406 17.3202 24.6379V24.6379C16.6416 24.6263 16.3218 23.8228 16.6303 23.2183C17.0815 22.3342 17.3333 21.3462 17.3333 20.3066C17.3333 16.52 14.0533 13.4534 9.99999 13.4534C8.82132 13.4534 7.71235 13.7089 6.72618 14.1727C6.30281 14.3718 5.78665 14.1212 5.78665 13.6533V13.6533C5.78665 7.58666 11.0533 2.66667 17.56 2.66667C24.0667 2.66667 29.3333 7.58666 29.3333 13.6533C29.3333 15.773 28.6908 17.7494 27.58 19.4246Z" stroke="#E7513B" stroke-width="2" stroke-linecap="round" stroke-linejoin="round"/>
<path d="M17.3333 20.3066C17.3333 21.8933 16.7467 23.36 15.76 24.52C15.2388 25.1518 14.597 25.6941 13.8667 26.1192C11.5771 27.4519 8.79784 27.8606 6.51999 29.2133V29.2133C5.93332 29.5733 5.18665 29.08 5.26665 28.4V28.4C5.47151 26.7857 4.6533 25.2533 3.75431 23.8969C3.06361 22.8549 2.66666 21.6246 2.66666 20.3066C2.66666 17.96 3.92 15.8933 5.84 14.6667C7.02666 13.8933 8.45332 13.4534 9.99999 13.4534C14.0533 13.4534 17.3333 16.52 17.3333 20.3066Z" stroke="#E7513B" stroke-width="2" stroke-linecap="round" stroke-linejoin="round"/>
</svg>
