<svg width="32" height="32" viewBox="0 0 32 32" fill="none" xmlns="http://www.w3.org/2000/svg">
<path d="M19.2533 25.4L21.28 27.4267L25.3333 23.3733" stroke="#E7513B" stroke-width="2" stroke-linecap="round" stroke-linejoin="round"/>
<path d="M16.2133 14.4933C16.08 14.48 15.92 14.48 15.7733 14.4933C12.6 14.3867 10.08 11.7867 10.08 8.58667C10.0667 5.32 12.72 2.66667 15.9867 2.66667C19.2533 2.66667 21.9067 5.32 21.9067 8.58667C21.9067 11.7867 19.3733 14.3867 16.2133 14.4933Z" stroke="#E7513B" stroke-width="2" stroke-linecap="round" stroke-linejoin="round"/>
<path d="M15.9867 29.08C13.56 29.08 11.1467 28.4667 9.30669 27.24C6.08002 25.08 6.08002 21.56 9.30669 19.4133C12.9734 16.96 18.9867 16.96 22.6534 19.4133" stroke="#E7513B" stroke-width="2" stroke-linecap="round" stroke-linejoin="round"/>
</svg>
