<svg width="32" height="32" viewBox="0 0 32 32" fill="none" xmlns="http://www.w3.org/2000/svg">
<path d="M29.3333 9.90666V17.9067C29.3333 19.9067 28.6666 21.5733 27.4933 22.7467C26.3333 23.9067 24.6667 24.5733 22.6667 24.5733V27.4133C22.6667 28.48 21.48 29.12 20.6 28.5334L14.6667 24.5733H11.84C11.9467 24.1733 12 23.76 12 23.3333C12 21.9733 11.48 20.72 10.6267 19.7734C9.66666 18.68 8.23999 18 6.66666 18C5.17332 18 3.81333 18.6134 2.84 19.6134C2.72 19.08 2.66666 18.5067 2.66666 17.9067V9.90666C2.66666 5.90666 5.33332 3.23999 9.33332 3.23999H22.6667C26.6667 3.23999 29.3333 5.90666 29.3333 9.90666Z" stroke="#E7513B" stroke-width="2" stroke-miterlimit="10" stroke-linecap="round" stroke-linejoin="round"/>
<path d="M12 23.3333C12 24.3333 11.72 25.28 11.2267 26.08C10.9467 26.56 10.5867 26.9867 10.1734 27.3333C9.24002 28.1733 8.01334 28.6667 6.66668 28.6667C4.72001 28.6667 3.02666 27.6267 2.10666 26.08C1.61333 25.28 1.33334 24.3333 1.33334 23.3333C1.33334 21.6533 2.10668 20.1467 3.33334 19.1733C4.25334 18.44 5.41334 18 6.66668 18C9.61334 18 12 20.3867 12 23.3333Z" stroke="#E7513B" stroke-width="2" stroke-miterlimit="10" stroke-linecap="round" stroke-linejoin="round"/>
<path d="M4.58667 23.3333L5.90666 24.6533L8.74666 22.0267" stroke="#E7513B" stroke-width="2" stroke-linecap="round" stroke-linejoin="round"/>
<path d="M11.3333 14H20.6667" stroke="#E7513B" stroke-width="2" stroke-miterlimit="10" stroke-linecap="round" stroke-linejoin="round"/>
</svg>
