<svg width="18" height="20" viewBox="0 0 18 20" fill="none" xmlns="http://www.w3.org/2000/svg">
<path d="M16.5 5.00887V6.95123C16.5 8.21939 15.75 9.02202 14.565 9.02202H12V3.41163C12 2.52071 12.6825 1.79834 13.515 1.79834C14.3325 1.80637 15.0825 2.15952 15.6225 2.73742C16.1625 3.32334 16.5 4.12597 16.5 5.00887Z" stroke="#E7513B" stroke-width="1.5" stroke-miterlimit="10" stroke-linecap="round" stroke-linejoin="round"/>
<path d="M1.5 5.8115V17.0483C1.5 17.7145 2.205 18.0918 2.7 17.6904L3.9825 16.6631C4.2825 16.4223 4.7025 16.4544 4.9725 16.7433L6.2175 18.0837C6.51 18.3968 6.99 18.3968 7.2825 18.0837L8.5425 16.7353C8.805 16.4544 9.225 16.4223 9.5175 16.6631L10.8 17.6904C11.295 18.0837 12 17.7065 12 17.0483V3.4036C12 2.52071 12.675 1.79834 13.5 1.79834H5.25H4.5C2.25 1.79834 1.5 3.23505 1.5 5.00887V5.8115Z" stroke="#E7513B" stroke-width="1.5" stroke-miterlimit="10" stroke-linecap="round" stroke-linejoin="round"/>
<path d="M6.75 10.6353H9" stroke="#E7513B" stroke-width="1.5" stroke-linecap="round" stroke-linejoin="round"/>
<path d="M6.75 7.4248H9" stroke="#E7513B" stroke-width="1.5" stroke-linecap="round" stroke-linejoin="round"/>
<path d="M4.4967 10.627H4.50344" stroke="#E7513B" stroke-width="2" stroke-linecap="round" stroke-linejoin="round"/>
<path d="M4.4967 7.4165H4.50344" stroke="#E7513B" stroke-width="2" stroke-linecap="round" stroke-linejoin="round"/>
</svg>
