<svg width="16" height="18" viewBox="0 0 16 18" fill="none" xmlns="http://www.w3.org/2000/svg">
<path d="M12.6666 5.66667C13.9553 5.66667 14.9999 4.622 14.9999 3.33333C14.9999 2.04467 13.9553 1 12.6666 1C11.378 1 10.3333 2.04467 10.3333 3.33333C10.3333 4.622 11.378 5.66667 12.6666 5.66667Z" stroke="white" stroke-width="1.5" stroke-linecap="round" stroke-linejoin="round"/>
<path d="M3.3333 10.7778C4.62197 10.7778 5.66664 9.73314 5.66664 8.44448C5.66664 7.15581 4.62197 6.11115 3.3333 6.11115C2.04464 6.11115 0.999969 7.15581 0.999969 8.44448C0.999969 9.73314 2.04464 10.7778 3.3333 10.7778Z" stroke="white" stroke-width="1.5" stroke-linecap="round" stroke-linejoin="round"/>
<path d="M12.6666 16.5555C13.9553 16.5555 14.9999 15.5109 14.9999 14.2222C14.9999 12.9335 13.9553 11.8889 12.6666 11.8889C11.378 11.8889 10.3333 12.9335 10.3333 14.2222C10.3333 15.5109 11.378 16.5555 12.6666 16.5555Z" stroke="white" stroke-width="1.5" stroke-linecap="round" stroke-linejoin="round"/>
<path d="M5.3479 9.95221L10.6601 13.0478" stroke="white" stroke-width="1.5" stroke-linecap="round" stroke-linejoin="round"/>
<path d="M10.6523 4.50769L5.3479 7.60325" stroke="white" stroke-width="1.5" stroke-linecap="round" stroke-linejoin="round"/>
</svg>
