<svg width="17" height="16" viewBox="0 0 17 16" fill="none" xmlns="http://www.w3.org/2000/svg">
<path d="M3.98881 15.58C4.09681 15.58 4.18321 15.535 4.24801 15.445L6.9696 12.6101C7.056 12.5201 7.0992 12.4244 7.0992 12.3232C7.0992 12.2219 7.056 12.1263 6.9696 12.0363L6.7428 11.8001C6.678 11.7101 6.5916 11.6651 6.4836 11.6651C6.3756 11.6651 6.27841 11.7101 6.19201 11.8001L4.53961 13.5551V0.865082C4.53961 0.752582 4.50181 0.656957 4.42621 0.578208C4.35061 0.499458 4.25881 0.460083 4.15081 0.460083H3.82681C3.71881 0.460083 3.62701 0.499458 3.55141 0.578208C3.47581 0.656957 3.43801 0.752582 3.43801 0.865082V13.5551L1.78562 11.8001C1.69922 11.7101 1.60202 11.6651 1.49402 11.6651C1.38602 11.6651 1.29962 11.7101 1.23482 11.8001L1.00802 12.0363C0.921618 12.1263 0.878418 12.2219 0.878418 12.3232C0.878418 12.4244 0.921618 12.5201 1.00802 12.6101L3.72961 15.445C3.79441 15.535 3.88081 15.58 3.98881 15.58ZM16.56 3.70008C16.668 3.70008 16.7598 3.6607 16.8354 3.58195C16.911 3.5032 16.9488 3.40758 16.9488 3.29508V3.02508C16.9488 2.91258 16.911 2.81695 16.8354 2.7382C16.7598 2.65945 16.668 2.62008 16.56 2.62008H9.0432C8.9352 2.62008 8.8434 2.65945 8.7678 2.7382C8.6922 2.81695 8.6544 2.91258 8.6544 3.02508V3.29508C8.6544 3.40758 8.6922 3.5032 8.7678 3.58195C8.8434 3.6607 8.9352 3.70008 9.0432 3.70008H16.56ZM14.4864 6.94007C14.5944 6.94007 14.6862 6.90069 14.7618 6.82194C14.8374 6.74319 14.8752 6.64757 14.8752 6.53507V6.26507C14.8752 6.15257 14.8374 6.05694 14.7618 5.9782C14.6862 5.89945 14.5944 5.86007 14.4864 5.86007H9.0432C8.9352 5.86007 8.8434 5.89945 8.7678 5.9782C8.6922 6.05694 8.6544 6.15257 8.6544 6.26507V6.53507C8.6544 6.64757 8.6922 6.74319 8.7678 6.82194C8.8434 6.90069 8.9352 6.94007 9.0432 6.94007H14.4864ZM12.4128 10.1801C12.5208 10.1801 12.6126 10.1407 12.6882 10.0619C12.7638 9.98319 12.8016 9.88756 12.8016 9.77506V9.50506C12.8016 9.39256 12.7638 9.29694 12.6882 9.21819C12.6126 9.13944 12.5208 9.10006 12.4128 9.10006H9.0432C8.9352 9.10006 8.8434 9.13944 8.7678 9.21819C8.6922 9.29694 8.6544 9.39256 8.6544 9.50506V9.77506C8.6544 9.88756 8.6922 9.98319 8.7678 10.0619C8.8434 10.1407 8.9352 10.1801 9.0432 10.1801H12.4128ZM10.3392 13.4201C10.4472 13.4201 10.539 13.3807 10.6146 13.3019C10.6902 13.2232 10.728 13.1276 10.728 13.0151V12.7451C10.728 12.6326 10.6902 12.5369 10.6146 12.4582C10.539 12.3794 10.4472 12.3401 10.3392 12.3401H9.0432C8.9352 12.3401 8.8434 12.3794 8.7678 12.4582C8.6922 12.5369 8.6544 12.6326 8.6544 12.7451V13.0151C8.6544 13.1276 8.6922 13.2232 8.7678 13.3019C8.8434 13.3807 8.9352 13.4201 9.0432 13.4201H10.3392Z" fill="#E7513B"/>
</svg>
