<svg width="18" height="18" viewBox="0 0 18 18" fill="none" xmlns="http://www.w3.org/2000/svg">
<path d="M7.33325 2.33325H5.99992C2.66659 2.33325 1.33325 3.66659 1.33325 6.99992V10.9999C1.33325 14.3333 2.66659 15.6666 5.99992 15.6666H9.99992C13.3333 15.6666 14.6666 14.3333 14.6666 10.9999V9.66658" stroke="white" stroke-width="1.5" stroke-linecap="round" stroke-linejoin="round"/>
<path d="M10.6933 3.01326L5.43992 8.26659C5.23992 8.46659 5.03992 8.85992 4.99992 9.14659L4.71325 11.1533C4.60659 11.8799 5.11992 12.3866 5.84659 12.2866L7.85325 11.9999C8.13325 11.9599 8.52659 11.7599 8.73325 11.5599L13.9866 6.30659C14.8933 5.39992 15.3199 4.34659 13.9866 3.01326C12.6533 1.67992 11.5999 2.10659 10.6933 3.01326Z" stroke="white" stroke-width="1.5" stroke-miterlimit="10" stroke-linecap="round" stroke-linejoin="round"/>
<path d="M9.93994 3.7666C10.3866 5.35994 11.6333 6.6066 13.2333 7.05994" stroke="white" stroke-width="1.5" stroke-miterlimit="10" stroke-linecap="round" stroke-linejoin="round"/>
</svg>
